<mxfile host="app.diagrams.net" agent="Mozilla/5.0 (Windows NT 10.0; Win64; x64) AppleWebKit/537.36 (KHTML, like Gecko) Chrome/128.0.0.0 Safari/537.36" version="24.8.3">
  <diagram name="Trang-1" id="zf4VUhz8zfQyRAPLoqF4">
    <mxGraphModel dx="1313" dy="754" grid="0" gridSize="10" guides="1" tooltips="1" connect="1" arrows="1" fold="1" page="1" pageScale="1" pageWidth="1169" pageHeight="827" math="0" shadow="0">
      <root>
        <mxCell id="0" />
        <mxCell id="1" parent="0" />
        <mxCell id="bkcJDHFwbeKcBb89doJ9-36" value="" style="group" vertex="1" connectable="0" parent="1">
          <mxGeometry x="340" y="194" width="490" height="440" as="geometry" />
        </mxCell>
        <mxCell id="bkcJDHFwbeKcBb89doJ9-1" value="ESP32" style="rounded=0;whiteSpace=wrap;html=1;" vertex="1" parent="bkcJDHFwbeKcBb89doJ9-36">
          <mxGeometry y="260" width="250" height="180" as="geometry" />
        </mxCell>
        <mxCell id="bkcJDHFwbeKcBb89doJ9-2" value="PIN 3.7V" style="rounded=0;whiteSpace=wrap;html=1;" vertex="1" parent="bkcJDHFwbeKcBb89doJ9-36">
          <mxGeometry width="250" height="180" as="geometry" />
        </mxCell>
        <mxCell id="bkcJDHFwbeKcBb89doJ9-3" value="MAX30100" style="rounded=0;whiteSpace=wrap;html=1;" vertex="1" parent="bkcJDHFwbeKcBb89doJ9-36">
          <mxGeometry x="350" y="260" width="140" height="180" as="geometry" />
        </mxCell>
        <mxCell id="bkcJDHFwbeKcBb89doJ9-9" value="" style="group" vertex="1" connectable="0" parent="bkcJDHFwbeKcBb89doJ9-36">
          <mxGeometry x="250" y="319.83" width="100" height="60.15999999999997" as="geometry" />
        </mxCell>
        <mxCell id="bkcJDHFwbeKcBb89doJ9-5" value="" style="endArrow=none;html=1;rounded=0;entryX=-0.001;entryY=0.612;entryDx=0;entryDy=0;entryPerimeter=0;strokeWidth=4;" edge="1" parent="bkcJDHFwbeKcBb89doJ9-9">
          <mxGeometry width="50" height="50" relative="1" as="geometry">
            <mxPoint y="60" as="sourcePoint" />
            <mxPoint x="99.8599999999999" y="60.15999999999997" as="targetPoint" />
          </mxGeometry>
        </mxCell>
        <mxCell id="bkcJDHFwbeKcBb89doJ9-6" value="" style="endArrow=none;html=1;rounded=0;entryX=-0.001;entryY=0.612;entryDx=0;entryDy=0;entryPerimeter=0;strokeWidth=4;" edge="1" parent="bkcJDHFwbeKcBb89doJ9-9">
          <mxGeometry width="50" height="50" relative="1" as="geometry">
            <mxPoint y="39.829999999999984" as="sourcePoint" />
            <mxPoint x="100" y="39.829999999999984" as="targetPoint" />
          </mxGeometry>
        </mxCell>
        <mxCell id="bkcJDHFwbeKcBb89doJ9-7" value="" style="endArrow=none;html=1;rounded=0;entryX=-0.001;entryY=0.612;entryDx=0;entryDy=0;entryPerimeter=0;strokeWidth=4;" edge="1" parent="bkcJDHFwbeKcBb89doJ9-9">
          <mxGeometry width="50" height="50" relative="1" as="geometry">
            <mxPoint y="20" as="sourcePoint" />
            <mxPoint x="100" y="20" as="targetPoint" />
          </mxGeometry>
        </mxCell>
        <mxCell id="bkcJDHFwbeKcBb89doJ9-8" value="" style="endArrow=none;html=1;rounded=0;entryX=-0.001;entryY=0.612;entryDx=0;entryDy=0;entryPerimeter=0;strokeWidth=4;" edge="1" parent="bkcJDHFwbeKcBb89doJ9-9">
          <mxGeometry width="50" height="50" relative="1" as="geometry">
            <mxPoint as="sourcePoint" />
            <mxPoint x="100" as="targetPoint" />
          </mxGeometry>
        </mxCell>
        <mxCell id="bkcJDHFwbeKcBb89doJ9-10" value="" style="group;rotation=90;" vertex="1" connectable="0" parent="bkcJDHFwbeKcBb89doJ9-36">
          <mxGeometry x="70" y="200" width="100" height="60.15999999999997" as="geometry" />
        </mxCell>
        <mxCell id="bkcJDHFwbeKcBb89doJ9-12" value="" style="endArrow=none;html=1;rounded=0;strokeWidth=4;" edge="1" parent="bkcJDHFwbeKcBb89doJ9-10">
          <mxGeometry width="50" height="50" relative="1" as="geometry">
            <mxPoint x="40" y="-20" as="sourcePoint" />
            <mxPoint x="40" y="60" as="targetPoint" />
          </mxGeometry>
        </mxCell>
        <mxCell id="bkcJDHFwbeKcBb89doJ9-13" value="" style="endArrow=none;html=1;rounded=0;strokeWidth=4;" edge="1" parent="bkcJDHFwbeKcBb89doJ9-10">
          <mxGeometry width="50" height="50" relative="1" as="geometry">
            <mxPoint x="60" y="-20" as="sourcePoint" />
            <mxPoint x="60" y="60" as="targetPoint" />
          </mxGeometry>
        </mxCell>
        <mxCell id="bkcJDHFwbeKcBb89doJ9-19" value="" style="group" vertex="1" connectable="0" parent="bkcJDHFwbeKcBb89doJ9-36">
          <mxGeometry x="201" y="304" width="60" height="90" as="geometry" />
        </mxCell>
        <mxCell id="bkcJDHFwbeKcBb89doJ9-15" value="SCL" style="text;html=1;align=center;verticalAlign=middle;whiteSpace=wrap;rounded=0;" vertex="1" parent="bkcJDHFwbeKcBb89doJ9-19">
          <mxGeometry width="60" height="30" as="geometry" />
        </mxCell>
        <mxCell id="bkcJDHFwbeKcBb89doJ9-16" value="SDA" style="text;html=1;align=center;verticalAlign=middle;whiteSpace=wrap;rounded=0;" vertex="1" parent="bkcJDHFwbeKcBb89doJ9-19">
          <mxGeometry y="20" width="60" height="30" as="geometry" />
        </mxCell>
        <mxCell id="bkcJDHFwbeKcBb89doJ9-17" value="VCC" style="text;html=1;align=center;verticalAlign=middle;whiteSpace=wrap;rounded=0;" vertex="1" parent="bkcJDHFwbeKcBb89doJ9-19">
          <mxGeometry y="40" width="60" height="30" as="geometry" />
        </mxCell>
        <mxCell id="bkcJDHFwbeKcBb89doJ9-18" value="GND" style="text;html=1;align=center;verticalAlign=middle;whiteSpace=wrap;rounded=0;" vertex="1" parent="bkcJDHFwbeKcBb89doJ9-19">
          <mxGeometry y="60" width="60" height="30" as="geometry" />
        </mxCell>
        <mxCell id="bkcJDHFwbeKcBb89doJ9-20" value="" style="group" vertex="1" connectable="0" parent="bkcJDHFwbeKcBb89doJ9-36">
          <mxGeometry x="338" y="304" width="60" height="90" as="geometry" />
        </mxCell>
        <mxCell id="bkcJDHFwbeKcBb89doJ9-21" value="SCL" style="text;html=1;align=center;verticalAlign=middle;whiteSpace=wrap;rounded=0;" vertex="1" parent="bkcJDHFwbeKcBb89doJ9-20">
          <mxGeometry width="60" height="30" as="geometry" />
        </mxCell>
        <mxCell id="bkcJDHFwbeKcBb89doJ9-22" value="SDA" style="text;html=1;align=center;verticalAlign=middle;whiteSpace=wrap;rounded=0;" vertex="1" parent="bkcJDHFwbeKcBb89doJ9-20">
          <mxGeometry y="20" width="60" height="30" as="geometry" />
        </mxCell>
        <mxCell id="bkcJDHFwbeKcBb89doJ9-23" value="VCC" style="text;html=1;align=center;verticalAlign=middle;whiteSpace=wrap;rounded=0;" vertex="1" parent="bkcJDHFwbeKcBb89doJ9-20">
          <mxGeometry y="40" width="60" height="30" as="geometry" />
        </mxCell>
        <mxCell id="bkcJDHFwbeKcBb89doJ9-24" value="GND" style="text;html=1;align=center;verticalAlign=middle;whiteSpace=wrap;rounded=0;" vertex="1" parent="bkcJDHFwbeKcBb89doJ9-20">
          <mxGeometry y="60" width="60" height="30" as="geometry" />
        </mxCell>
        <mxCell id="bkcJDHFwbeKcBb89doJ9-30" value="" style="group;rotation=-90;" vertex="1" connectable="0" parent="bkcJDHFwbeKcBb89doJ9-36">
          <mxGeometry x="89" y="253" width="60" height="50" as="geometry" />
        </mxCell>
        <mxCell id="bkcJDHFwbeKcBb89doJ9-32" value="" style="group" vertex="1" connectable="0" parent="bkcJDHFwbeKcBb89doJ9-30">
          <mxGeometry x="4.999999999999998" y="-5" width="50" height="60" as="geometry" />
        </mxCell>
        <mxCell id="bkcJDHFwbeKcBb89doJ9-26" value="VCC" style="text;html=1;align=center;verticalAlign=middle;whiteSpace=wrap;rounded=0;rotation=-90;" vertex="1" parent="bkcJDHFwbeKcBb89doJ9-32">
          <mxGeometry x="-14.999999999999998" y="15" width="60" height="30" as="geometry" />
        </mxCell>
        <mxCell id="bkcJDHFwbeKcBb89doJ9-27" value="GND" style="text;html=1;align=center;verticalAlign=middle;whiteSpace=wrap;rounded=0;rotation=-90;" vertex="1" parent="bkcJDHFwbeKcBb89doJ9-32">
          <mxGeometry x="5.000000000000002" y="15" width="60" height="30" as="geometry" />
        </mxCell>
        <mxCell id="bkcJDHFwbeKcBb89doJ9-33" value="" style="group" vertex="1" connectable="0" parent="bkcJDHFwbeKcBb89doJ9-36">
          <mxGeometry x="94" y="133" width="50" height="60" as="geometry" />
        </mxCell>
        <mxCell id="bkcJDHFwbeKcBb89doJ9-34" value="VCC" style="text;html=1;align=center;verticalAlign=middle;whiteSpace=wrap;rounded=0;rotation=-90;" vertex="1" parent="bkcJDHFwbeKcBb89doJ9-33">
          <mxGeometry x="-14.999999999999998" y="15" width="60" height="30" as="geometry" />
        </mxCell>
        <mxCell id="bkcJDHFwbeKcBb89doJ9-35" value="GND" style="text;html=1;align=center;verticalAlign=middle;whiteSpace=wrap;rounded=0;rotation=-90;" vertex="1" parent="bkcJDHFwbeKcBb89doJ9-33">
          <mxGeometry x="5.000000000000002" y="15" width="60" height="30" as="geometry" />
        </mxCell>
      </root>
    </mxGraphModel>
  </diagram>
</mxfile>
